PathFileType	4	(X/Y/Z)	Kaydara																																																																																																																									
DataRate	CameraRate	NumFrames	NumMarkers	Units	OrigDataRate	OrigDataStartFrame	OrigNumFrames																																																																																																																					
30	30	5	41	mm	30	260	373																																																																																																																					
Frame#	Time	NABA_LFHD			NABA_RFHD			NABA_LBHD			NABA_RBHD			NABA_LFTShould			NABA_RFTShould			NABA_LRRShould			NABA_RRRShould			NABA_T10			NABA_STRN			NABA_TRUN			NABA_LSHO			NABA_LUPA			NABA_LELB			NABA_LFRM			NABA_LWRA			NABA_LWRB			NABA_LFIN			NABA_RSHO			NABA_RUPA			NABA_RELB			NABA_RFRM			NABA_RWRA			NABA_RWRB			NABA_RFIN			NABA_LFWT			NABA_RFWT			NABA_LBWT			NABA_RBWT			NABA_LTHI			NABA_LKNE			NABA_LSHN			NABA_LANK			NABA_LHEE			NABA_LTOE			NABA_RTHI			NABA_RKNE			NABA_RSHN			NABA_RANK			NABA_RHEE			NABA_RTOE		
		X1	Y1	Z1	X2	Y2	Z2	X3	Y3	Z3	X4	Y4	Z4	X5	Y5	Z5	X6	Y6	Z6	X7	Y7	Z7	X8	Y8	Z8	X9	Y9	Z9	X10	Y10	Z10	X11	Y11	Z11	X12	Y12	Z12	X13	Y13	Z13	X14	Y14	Z14	X15	Y15	Z15	X16	Y16	Z16	X17	Y17	Z17	X18	Y18	Z18	X19	Y19	Z19	X20	Y20	Z20	X21	Y21	Z21	X22	Y22	Z22	X23	Y23	Z23	X24	Y24	Z24	X25	Y25	Z25	X26	Y26	Z26	X27	Y27	Z27	X28	Y28	Z28	X29	Y29	Z29	X30	Y30	Z30	X31	Y31	Z31	X32	Y32	Z32	X33	Y33	Z33	X34	Y34	Z34	X35	Y35	Z35	X36	Y36	Z36	X37	Y37	Z37	X38	Y38	Z38	X39	Y39	Z39	X40	Y40	Z40	X41	Y41	Z41
																																																																																																																												
187	8.63	182.46805	1417.25739	-6.03392	14.18319	1380.57938	3.01119	185.80133	1509.46075	-92.55366	-26.43804	1453.84384	-55.34291	153.13911	1297.93594	-195.97485	29.06354	1285.60638	-182.97947	143.70255	1379.89548	-292.24987	0.66265	1366.00754	-270.58025	75.26619	1230.66612	-393.87051	101.86065	1231.22559	-151.77256	111.57558	1127.10312	-121.8924	241.37066	1338.23456	-239.63741	307.72085	1117.45499	-284.35232	312.76356	1014.95934	-264.5841	302.58602	933.41789	-284.28631	239.09187	793.19229	-198.21825	311.4259	789.65477	-201.25492	289.47536	736.27815	-154.38208	-58.81809	1318.17078	-201.09276	-125.08853	1119.7953	-269.61542	-133.50679	987.50595	-220.43018	-130.91131	892.94388	-210.67501	-44.1249	773.76755	-144.56675	-116.31313	759.74106	-130.34488	-94.09346	725.32181	-101.43957	228.98357	933.60382	-227.79751	-33.97642	931.85997	-195.03036	157.84337	992.89871	-392.91618	-10.04706	1008.58505	-374.47483	234.33884	636.04523	-363.82027	258.12546	489.03927	-306.69361	215.60465	301.23159	-376.02894	241.55134	221.7263	-522.50957	183.83759	218.07163	-593.83514	214.02775	65.86627	-481.77719	-39.27765	643.02994	-320.71972	-4.09001	490.28225	-197.74239	18.00602	317.88889	-204.42997	21.32073	121.18475	-252.38546	66.19961	73.33447	-319.63507	64.1374	60.97434	-133.70593
188	8.663	177.65165	1418.67218	2.59047	9.68212	1380.82809	11.02084	180.63337	1510.55466	-84.20954	-31.30172	1453.67325	-47.52646	149.32691	1298.31635	-187.58492	25.58364	1285.41626	-174.46667	139.63332	1380.18677	-283.93703	-3.33276	1365.65536	-261.94777	71.49376	1230.41824	-385.17002	98.50362	1231.3839	-143.24712	108.6886	1127.37808	-113.21248	237.5243	1338.89175	-231.37735	303.97327	1117.60597	-273.84727	308.04165	1015.0959	-253.034	296.80454	932.83234	-271.09549	229.90271	795.78743	-183.03009	302.31398	790.99144	-184.97713	278.79593	739.09332	-137.24028	-62.48753	1317.66907	-192.38838	-128.40859	1118.15399	-258.83358	-136.33368	986.58798	-207.63584	-133.29628	892.12692	-196.37346	-45.497	774.43542	-128.89137	-117.58574	760.35599	-114.00615	-95.00952	726.58005	-84.65595	226.25265	933.81622	-219.12766	-36.3359	931.68419	-185.87063	154.61639	992.25517	-384.22337	-13.25501	1008.37387	-365.17059	232.80922	634.01619	-347.42008	257.32828	488.86333	-285.72536	214.35158	303.029	-357.43	239.95716	227.52888	-506.09955	181.33696	225.1634	-577.11548	217.08561	72.10142	-468.73875	-41.351	643.56277	-313.67941	-5.89173	489.51756	-192.48312	16.9033	317.17026	-201.29831	20.90671	121.06318	-251.60872	66.05995	73.64314	-319.30426	64.04698	60.9166	-133.67787
189	8.697	173.34015	1419.7551	10.65463	5.72691	1380.89737	18.38901	176.02863	1511.49994	-76.28526	-35.45525	1453.46527	-40.55933	146.18876	1298.70834	-179.71157	22.48392	1285.49545	-166.39688	136.14245	1380.47119	-276.15612	-6.78954	1365.51437	-254.05231	68.29556	1230.36339	-377.06581	95.57027	1231.54732	-135.31913	106.12924	1127.63306	-105.13988	234.10131	1339.50317	-223.49997	301.02438	1118.0085	-264.07692	304.36478	1015.35912	-242.22176	292.56762	932.53197	-258.95981	221.49475	798.4597	-169.50378	293.84573	792.49825	-169.70388	268.44378	742.20154	-121.33142	-65.64194	1317.36389	-184.37174	-131.12225	1116.84227	-248.92132	-138.6246	985.98259	-195.88146	-135.2165	891.69113	-183.23042	-46.81704	775.28481	-114.13682	-118.87654	761.26617	-98.92919	-96.24367	728.05428	-69.08998	223.46207	934.33197	-210.28345	-38.8676	932.18132	-176.48655	151.8001	991.8351	-376.09955	-15.80495	1008.16788	-356.72852	231.42332	632.74288	-332.20119	256.13678	489.1156	-266.71398	213.8311	304.39714	-338.02029	237.73472	230.17008	-488.11691	177.01708	226.29923	-557.72419	223.07711	77.71571	-448.64838	-42.83808	644.04678	-307.41547	-7.53748	488.759	-187.79779	15.93205	316.52596	-198.24394	20.47436	120.91307	-250.92552	66.05752	73.92766	-318.85277	63.94622	60.89161	-133.68812
190	8.73	169.50584	1420.71198	18.2158	2.03473	1381.14746	25.48692	172.07407	1512.38327	-68.78153	-39.2534	1453.452	-33.63799	143.45964	1299.21173	-172.19656	19.56205	1285.76004	-158.94129	133.05552	1380.7608	-268.82391	-9.87152	1365.53726	-246.68976	65.51195	1230.27283	-369.44511	92.80565	1231.98143	-127.75492	103.61753	1128.17101	-97.45832	231.06762	1340.11215	-216.12566	298.7414	1118.50014	-255.15377	301.62546	1015.78384	-232.25279	289.42972	932.4704	-247.83915	214.08232	801.23245	-157.48789	286.46915	794.20494	-155.72418	258.91699	745.31631	-107.0378	-68.52226	1317.4054	-176.99575	-133.22718	1115.99426	-239.87476	-140.39044	985.76416	-185.27374	-136.72546	891.68419	-171.44938	-48.16335	776.4888	-100.64101	-120.23519	762.33238	-85.49907	-97.61913	729.64981	-55.16159	220.02909	935.65613	-200.96296	-41.53388	931.98654	-168.71845	149.74604	991.80435	-368.13118	-17.90658	1007.87003	-348.97957	230.42358	632.09709	-318.30685	254.67377	489.9781	-249.50932	214.61437	305.43222	-317.69032	236.14094	229.57676	-467.55516	173.59379	221.73826	-535.67635	228.78939	81.35218	-421.73912	-43.56171	644.24973	-301.83884	-8.73282	487.85019	-183.51637	15.53838	315.72926	-195.60642	20.44722	120.72621	-250.09495	66.11436	74.27988	-318.84378	64.01351	60.89747	-133.66307
191	8.763	166.18208	1421.64322	25.31266	-1.1752	1381.73981	32.3363	168.6977	1513.15033	-61.90773	-42.54753	1453.82202	-27.0368	140.59283	1299.5433	-165.08844	16.81328	1285.99319	-151.90376	130.24458	1380.85175	-261.84584	-12.65606	1365.55878	-239.74012	62.85836	1230.12665	-362.11308	90.12091	1232.50893	-120.50756	101.0511	1128.70392	-90.07621	228.30229	1340.4538	-209.10416	297.00211	1118.94623	-246.92053	299.56949	1016.03943	-223.17873	287.00182	932.41119	-237.68423	207.96234	803.67088	-146.74158	280.44905	795.6369	-143.5424	250.99459	747.86743	-94.61911	-71.31732	1317.58179	-169.97524	-134.89217	1115.39284	-231.66719	-141.7864	985.74387	-175.89678	-137.82146	891.80008	-161.20985	-49.21844	777.55852	-88.50438	-121.38671	763.37273	-73.81236	-98.95193	731.091	-42.93645	217.16694	936.81519	-192.31281	-44.19183	931.17889	-162.30972	148.22885	991.97937	-360.38902	-19.62819	1007.46498	-341.64795	229.75594	631.71856	-305.26205	252.92673	490.96947	-233.46741	214.57251	304.84419	-296.19896	234.85193	224.57901	-443.60107	170.91825	211.80666	-510.99365	234.87499	82.25241	-390.53596	-43.85779	644.17213	-296.54463	-9.25161	486.9191	-179.26851	15.79931	314.94665	-192.78719	20.81533	120.32995	-249.07415	66.75792	74.78687	-318.17652	64.1739	60.8922	-133.60402
